<svg width="154" height="32" viewBox="0 0 154 32" fill="none" xmlns="http://www.w3.org/2000/svg">
<path d="M50.793 25.1228V6.23438H55.097V13.4155H63.6602V6.23438H67.9642V25.1228H63.6602V17.2408H55.097V25.1228H50.793Z" fill="black"/>
<path d="M73.3464 9.94109C72.7204 9.94109 72.1873 9.71478 71.7423 9.26385C71.3006 8.81292 71.0781 8.2691 71.0781 7.6307C71.0781 6.9923 71.3006 6.45017 71.7423 5.99755C72.184 5.54662 72.7187 5.32031 73.3464 5.32031C73.974 5.32031 74.5054 5.54662 74.9504 5.99755C75.3921 6.44848 75.6146 6.9923 75.6146 7.6307C75.6146 8.2691 75.3921 8.81123 74.9504 9.26385C74.5087 9.71478 73.974 9.94109 73.3464 9.94109ZM71.2409 25.1224V11.1317H75.4535V25.1224H71.2409Z" fill="black"/>
<path d="M82.9432 25.1235L77.0352 11.1328H81.4986L85.0703 20.0636H85.1633L88.6437 11.1328H93.0174L87.1094 25.1235H82.9415H82.9432Z" fill="black"/>
<path d="M100.97 25.4052C99.4588 25.4052 98.147 25.1062 97.0312 24.5084C95.917 23.9105 95.0585 23.0627 94.4541 21.9666C93.8497 20.8705 93.5508 19.5752 93.5508 18.0839C93.5508 16.5926 93.843 15.3057 94.4309 14.2248C95.0187 13.1456 95.8589 12.313 96.9482 11.7286C98.0391 11.146 99.326 10.8555 100.807 10.8555C102.288 10.8555 103.53 11.1392 104.586 11.7067C105.639 12.2741 106.443 13.0865 107.001 14.142C107.559 15.1993 107.838 16.4659 107.838 17.9437V19.3201H97.6041C97.7734 20.222 98.1387 20.9026 98.7033 21.3603C99.2679 21.8197 100.015 22.0477 100.948 22.0477C101.696 22.0477 102.28 21.9278 102.698 21.6863C103.117 21.4464 103.419 21.0614 103.602 20.5327H107.814C107.526 22.0578 106.775 23.2485 105.569 24.1115C104.364 24.9745 102.83 25.4069 100.967 25.4069H100.968L100.97 25.4052ZM97.6721 16.52H103.809C103.673 15.7431 103.354 15.1638 102.86 14.7821C102.365 14.4004 101.687 14.2113 100.834 14.2113C99.9802 14.2113 99.3061 14.4072 98.7747 14.7939C98.24 15.1824 97.8747 15.7583 97.6755 16.52H97.6738H97.6721Z" fill="black"/>
<path d="M111.516 25.1274V15.3335H109.457V11.135H113.67V13.9335H114.631C114.983 12.9218 115.554 12.1737 116.348 11.6839C117.142 11.1941 118.025 10.9492 119.005 10.9492H120.174V14.68H118.822C117.693 14.68 116.879 14.9975 116.385 15.6359C115.89 16.2743 115.641 17.1052 115.641 18.132V25.1274H111.519H111.516Z" fill="black"/>
<path d="M147.134 25.4052C145.623 25.4052 144.311 25.1062 143.195 24.5084C142.079 23.9105 141.223 23.0627 140.618 21.9666C140.014 20.8705 139.715 19.5752 139.715 18.0839C139.715 16.5926 140.007 15.3057 140.595 14.2248C141.183 13.1456 142.023 12.313 143.112 11.7286C144.203 11.146 145.49 10.8555 146.971 10.8555C148.452 10.8555 149.694 11.1392 150.747 11.7067C151.8 12.2741 152.605 13.0865 153.162 14.142C153.719 15.1993 153.998 16.4659 153.998 17.9437V19.3201H143.765C143.934 20.222 144.299 20.9026 144.864 21.3603C145.429 21.8197 146.176 22.0477 147.109 22.0477C147.856 22.0477 148.441 21.9278 148.859 21.6863C149.278 21.4464 149.58 21.0614 149.763 20.5327H153.975C153.686 22.0578 152.936 23.2485 151.73 24.1115C150.525 24.9745 148.99 25.4069 147.127 25.4069H147.131L147.134 25.4052ZM143.838 16.52H149.975C149.839 15.7431 149.52 15.1638 149.025 14.7821C148.53 14.4004 147.853 14.2113 146.999 14.2113C146.146 14.2113 145.472 14.4072 144.939 14.7939C144.404 15.1824 144.039 15.7583 143.84 16.52H143.838Z" fill="black"/>
<path d="M128.866 30.9999C126.744 30.9999 125.024 30.5675 123.703 29.7045C122.382 28.8415 121.601 27.6407 121.355 26.1021H125.797C126.149 27.1273 127.117 27.6407 128.706 27.6407C129.821 27.6407 130.673 27.384 131.26 26.8723C131.848 26.3589 132.14 25.6276 132.14 24.6801V22.9304H132.027C131.599 23.6617 131.038 24.2089 130.344 24.5754C129.65 24.9402 128.806 25.1226 127.813 25.1226C126.531 25.1226 125.412 24.8321 124.459 24.2478C123.506 23.6651 122.765 22.8375 122.237 21.7651C121.709 20.6927 121.447 19.4344 121.447 17.9871C121.447 15.8118 122.038 14.0773 123.22 12.787C124.402 11.4967 126.04 10.8516 128.132 10.8516C129.291 10.8516 130.287 11.0813 131.121 11.5389C131.951 11.9983 132.612 12.6384 133.1 13.4626H134.062V11.1319H138.274V15.3288H136.214V24.6784C136.214 26.6983 135.579 28.2572 134.314 29.3532C133.045 30.4493 131.232 30.9965 128.864 30.9965H128.866V30.9999ZM128.866 21.3935C129.859 21.3935 130.629 21.1216 131.177 20.5778C131.725 20.034 132.001 19.2791 132.001 18.3147V17.6155C132.001 16.6681 131.722 15.925 131.164 15.3896C130.606 14.8525 129.839 14.584 128.863 14.584C127.886 14.584 127.049 14.8846 126.493 15.4808C125.935 16.0786 125.656 16.9214 125.656 18.0107C125.656 19.1 125.935 19.9344 126.493 20.517C127.051 21.0997 127.841 21.3902 128.863 21.3902H128.864L128.866 21.3935Z" fill="black"/>
<path d="M22.2198 16.4409L18.4688 23.1778L22.2613 29.7256L29.8315 29.7205L33.5461 23.0495L29.7933 16.4375L22.2198 16.4409Z" fill="black"/>
<path d="M12.3409 1.01119L8.58984 7.74813L12.3824 14.2959L19.9526 14.2908L23.6672 7.61978L19.9144 1.00781L12.3409 1.01119Z" fill="black"/>
<path d="M18.757 16.4384H11.2549L7.43073 9.82812L0 23.1736L3.79092 29.7248H11.3578L18.7553 16.4384H18.757Z" fill="black"/>
<path d="M23.4141 14.2864H30.9162L34.7403 20.8967L42.1711 7.55116L38.3801 1H30.8132L23.4157 14.2864H23.4141Z" fill="black"/>
<path d="M19.955 14.2941L23.4172 14.2891L22.2183 16.4424L18.7578 16.4407L19.955 14.2941Z" fill="black"/>
</svg>
